<svg width="17" height="17" viewBox="0 0 17 17" fill="none" xmlns="http://www.w3.org/2000/svg">
<path d="M6.73 15.6283C6.00489 15.4631 5.30838 15.191 4.66333 14.8208M10.0633 1C11.7201 1.37839 13.1994 2.30808 14.2589 3.63684C15.3184 4.9656 15.8954 6.61471 15.8954 8.31417C15.8954 10.0136 15.3184 11.6627 14.2589 12.9915C13.1994 14.3203 11.7201 15.2499 10.0633 15.6283M2.2125 12.5583C1.75841 11.8976 1.4132 11.1684 1.19 10.3983M1 7.06417C1.13333 6.2725 1.39 5.5225 1.75 4.835L1.89083 4.58083M4.1525 2.13C4.93267 1.59407 5.80723 1.21065 6.73 1" stroke="white" stroke-width="1.66667" stroke-linecap="round" stroke-linejoin="round"/>
</svg>
