<svg width="25" height="25" viewBox="0 0 28 24" fill="none" xmlns="http://www.w3.org/2000/svg">
<path d="M18.1131 5.27824C18.1131 6.41289 17.6624 7.50108 16.86 8.30341C16.0577 9.10573 14.9695 9.55647 13.8349 9.55647C12.7002 9.55647 11.612 9.10573 10.8097 8.30341C10.0074 7.50108 9.55664 6.41289 9.55664 5.27824C9.55664 4.14358 10.0074 3.05539 10.8097 2.25307C11.612 1.45074 12.7002 1 13.8349 1C14.9695 1 16.0577 1.45074 16.86 2.25307C17.6624 3.05539 18.1131 4.14358 18.1131 5.27824V5.27824Z" stroke="#3292EA" stroke-width="1.5"/>
<path d="M25.2434 8.13048C25.2434 8.88692 24.9429 9.61237 24.408 10.1473C23.8731 10.6821 23.1477 10.9826 22.3912 10.9826C21.6348 10.9826 20.9093 10.6821 20.3744 10.1473C19.8396 9.61237 19.5391 8.88692 19.5391 8.13048C19.5391 7.37404 19.8396 6.64858 20.3744 6.1137C20.9093 5.57881 21.6348 5.27832 22.3912 5.27832C23.1477 5.27832 23.8731 5.57881 24.408 6.1137C24.9429 6.64858 25.2434 7.37404 25.2434 8.13048V8.13048Z" stroke="#3292EA" stroke-width="1.5"/>
<path d="M8.13009 8.13048C8.13009 8.88692 7.8296 9.61237 7.29472 10.1473C6.75983 10.6821 6.03438 10.9826 5.27794 10.9826C4.5215 10.9826 3.79604 10.6821 3.26116 10.1473C2.72628 9.61237 2.42578 8.88692 2.42578 8.13048C2.42578 7.37404 2.72628 6.64858 3.26116 6.1137C3.79604 5.57881 4.5215 5.27832 5.27794 5.27832C6.03438 5.27832 6.75983 5.57881 7.29472 6.1137C7.8296 6.64858 8.13009 7.37404 8.13009 8.13048V8.13048Z" stroke="#3292EA" stroke-width="1.5"/>
<path d="M22.3908 22.3912V18.1129C22.3929 16.663 22.0248 15.2366 21.3213 13.9687C21.9535 13.807 22.6144 13.7917 23.2534 13.9241C23.8925 14.0566 24.4928 14.3332 25.0087 14.733C25.5245 15.1328 25.9423 15.6451 26.23 16.2308C26.5178 16.8166 26.668 17.4603 26.6691 18.1129V22.3912H22.3908Z" stroke="#3292EA" stroke-width="1.5"/>
<path d="M6.34779 13.9689C5.64438 15.2367 5.27624 16.6631 5.27824 18.113V22.3913H1V18.113C0.999726 17.46 1.14897 16.8155 1.4363 16.229C1.72364 15.6425 2.14142 15.1296 2.65765 14.7296C3.17388 14.3295 3.77484 14.053 4.41447 13.9211C5.05411 13.7893 5.71545 13.8056 6.34779 13.9689V13.9689Z" stroke="#3292EA" stroke-width="1.5"/>
<rect x="8.12988" y="12.4092" width="11.4086" height="9.98255" rx="4.27824" stroke="#3292EA" stroke-width="1.5"/>
</svg>
