<svg width="25" height="25" viewBox="0 0 30 25" fill="none" xmlns="http://www.w3.org/2000/svg">
<path d="M15.085 1.24609C16.3301 1.30793 17.5117 1.83008 18.3975 2.71582L18.5693 2.89648C19.4064 3.82074 19.873 5.02547 19.873 6.27832C19.873 7.61451 19.3423 8.89599 18.3975 9.84082C17.4526 10.7857 16.1712 11.3164 14.835 11.3164C13.5821 11.3164 12.3774 10.8497 11.4531 10.0127L11.2725 9.84082C10.3276 8.89599 9.7969 7.61451 9.79688 6.27832C9.79688 4.9421 10.3276 3.66067 11.2725 2.71582L11.4531 2.54297C12.3773 1.70617 13.5823 1.24023 14.835 1.24023L15.085 1.24609Z" stroke="black" stroke-width="1.52"/>
<path d="M23.5703 5.52246C24.4631 5.56674 25.3102 5.94115 25.9453 6.57617L26.0693 6.70605C26.6692 7.36865 27.0029 8.23282 27.0029 9.13086C27.0028 10.0287 26.6691 10.8922 26.0693 11.5547L25.9453 11.6846C25.268 12.3619 24.3495 12.7421 23.3916 12.7422C22.4936 12.7422 21.6294 12.4085 20.9668 11.8086L20.8369 11.6846C20.1597 11.0073 19.7794 10.0887 19.7793 9.13086C19.7793 8.17286 20.1595 7.25358 20.8369 6.57617L20.9668 6.45312C21.6294 5.85304 22.4934 5.51855 23.3916 5.51855L23.5703 5.52246Z" stroke="black" stroke-width="1.52"/>
<path d="M6.45703 5.52246C7.34979 5.56674 8.19696 5.94115 8.83203 6.57617C9.50944 7.25358 9.88965 8.17286 9.88965 9.13086C9.88955 10.0287 9.55577 10.8922 8.95605 11.5547L8.83203 11.6846C8.15471 12.3619 7.23619 12.7421 6.27832 12.7422C5.38028 12.7422 4.51611 12.4085 3.85352 11.8086L3.72363 11.6846C3.04638 11.0073 2.66612 10.0887 2.66602 9.13086C2.66602 8.17286 3.04622 7.25358 3.72363 6.57617C4.40104 5.89876 5.32032 5.51855 6.27832 5.51855L6.45703 5.52246Z" stroke="black" stroke-width="1.52"/>
<path d="M28.4287 24.1514H22.6309V19.1123L22.627 18.8643C22.5893 17.6294 22.2568 16.4203 21.6562 15.3379L21.1787 14.4766L22.1328 14.2324C22.877 14.042 23.655 14.0239 24.4072 14.1797L24.6875 14.2461C25.3352 14.4193 25.9431 14.72 26.4746 15.1318L26.6963 15.3145C27.202 15.7546 27.6156 16.292 27.9121 16.8955L28.0312 17.1572C28.2921 17.7748 28.4275 18.439 28.4287 19.1113V24.1514Z" stroke="black" stroke-width="1.52"/>
<path d="M7.03809 24.1514H1.24023V19.1133L1.24805 18.8252C1.28614 18.1554 1.45788 17.4988 1.75391 16.8945L1.8877 16.6396C2.21686 16.0549 2.66046 15.5411 3.19238 15.1289L3.4248 14.959C3.97773 14.579 4.60178 14.3126 5.26074 14.1768L5.54492 14.127C6.20871 14.0293 6.88659 14.0652 7.53809 14.2334L8.48926 14.4785L8.0127 15.3379C7.37208 16.4926 7.03627 17.7918 7.03809 19.1123V24.1514Z" stroke="black" stroke-width="1.52"/>
<rect x="8.36988" y="12.6492" width="12.9286" height="11.5025" rx="5.03824" stroke="black" stroke-width="1.52"/>
</svg>
