<svg width="44" height="39" viewBox="0 0 44 39" fill="none" xmlns="http://www.w3.org/2000/svg">
<rect opacity="0.2" x="1.02403" y="0.4752" width="42.2286" height="38.016" rx="1.63109" fill="#7096BA" stroke="#534A4A" stroke-width="0.9504"/>
<g clip-path="url(#clip0_412_206)">
<path fill-rule="evenodd" clip-rule="evenodd" d="M25.2597 9.74161H21.4049C19.658 9.74161 18.2743 9.74161 17.1917 9.88702C16.0779 10.0372 15.1759 10.3527 14.4641 11.0636C13.7532 11.7755 13.4377 12.6774 13.2875 13.7913C13.1421 14.8747 13.1421 16.2576 13.1421 18.0044V23.76C13.1421 24.6091 13.4452 25.4303 13.9968 26.0759C14.5484 26.7214 15.3123 27.1488 16.1511 27.2812C16.2813 28.0073 16.5331 28.627 17.0368 29.1317C17.609 29.7038 18.3294 29.949 19.1847 30.065C20.0087 30.1752 21.057 30.1752 22.3562 30.1752H25.312C26.6112 30.1752 27.6595 30.1752 28.4835 30.065C29.3388 29.949 30.0592 29.7038 30.6314 29.1317C31.2035 28.5595 31.4487 27.8391 31.5646 26.9838C31.6749 26.1598 31.6749 25.1115 31.6749 23.8123V18.9557C31.6749 17.6565 31.6749 16.6082 31.5646 15.7843C31.4487 14.9289 31.2035 14.2085 30.6314 13.6363C30.1267 13.1326 29.507 12.8808 28.7809 12.7506C28.6485 11.9119 28.2211 11.148 27.5755 10.5963C26.93 10.0447 26.1088 9.74163 25.2597 9.74161ZM27.284 12.6128C27.1395 12.1908 26.8667 11.8246 26.5037 11.5654C26.1407 11.3061 25.7057 11.1669 25.2597 11.1672H21.4581C19.6457 11.1672 18.3588 11.1691 17.3809 11.3003C16.4257 11.4286 15.8745 11.67 15.4725 12.072C15.0705 12.474 14.8291 13.0252 14.7007 13.9813C14.5696 14.9584 14.5677 16.2452 14.5677 18.0576V23.76C14.5674 24.2061 14.7066 24.641 14.9658 25.004C15.225 25.367 15.5913 25.6398 16.0132 25.7844C15.9933 25.2046 15.9933 24.5488 15.9933 23.8123V18.9557C15.9933 17.6565 15.9933 16.6082 16.1045 15.7843C16.2185 14.9289 16.4656 14.2085 17.0368 13.6363C17.609 13.0642 18.3294 12.819 19.1847 12.704C20.0087 12.5928 21.057 12.5928 22.3562 12.5928H25.312C26.0485 12.5928 26.7043 12.5928 27.284 12.6128ZM18.0443 14.6457C18.3075 14.3824 18.6763 14.2113 19.3748 14.1173C20.0914 14.0213 21.0437 14.0194 22.4075 14.0194H25.2587C26.6226 14.0194 27.5739 14.0213 28.2924 14.1173C28.99 14.2113 29.3588 14.3834 29.622 14.6457C29.8853 14.9089 30.0564 15.2777 30.1505 15.9762C30.2464 16.6928 30.2483 17.6451 30.2483 19.009V23.761C30.2483 25.1248 30.2464 26.0761 30.1505 26.7946C30.0564 27.4922 29.8843 27.861 29.622 28.1242C29.3588 28.3875 28.99 28.5586 28.2915 28.6527C27.5739 28.7487 26.6226 28.7506 25.2587 28.7506H22.4075C21.0437 28.7506 20.0914 28.7487 19.3739 28.6527C18.6763 28.5586 18.3075 28.3866 18.0443 28.1242C17.781 27.861 17.6099 27.4922 17.5158 26.7937C17.4198 26.0761 17.4179 25.1248 17.4179 23.761V19.009C17.4179 17.6451 17.4198 16.6928 17.5158 15.9753C17.6099 15.2777 17.7819 14.9089 18.0443 14.6457Z" fill="#5BA8EE"/>
</g>
<defs>
<clipPath id="clip0_412_206">
<rect width="23.76" height="23.76" fill="white" transform="translate(10.0532 7.60321)"/>
</clipPath>
</defs>
</svg>
