<svg width="33" height="33" viewBox="0 0 33 33" fill="none" xmlns="http://www.w3.org/2000/svg">
<g id="solar:notes-broken" opacity="0.5">
<g id="Group">
<path id="Vector" d="M16.1934 13.75L22.8346 15.5292M15.125 17.7347L19.1097 18.8017M27.929 17.3896C27.0971 20.4902 26.6819 22.0412 25.74 23.0464C24.9968 23.84 24.035 24.3955 22.9762 24.6427C22.8429 24.6744 22.7081 24.6977 22.5706 24.7142C21.3125 24.8696 19.7766 24.4585 16.9826 23.7105C13.882 22.8786 12.331 22.4634 11.3259 21.5215C10.532 20.7779 9.97649 19.8157 9.72949 18.7564C9.41599 17.4144 9.83124 15.8647 10.6631 12.7641L11.374 10.1076L11.7095 8.86324C12.3351 6.57249 12.7559 5.31162 13.563 4.44949C14.3064 3.65639 15.2681 3.10136 16.3267 2.85449C17.6687 2.54099 19.2197 2.95624 22.3217 3.78812C25.421 4.61862 26.972 5.03387 27.9771 5.97437C28.7712 6.71832 29.3267 7.68109 29.5735 8.74087C29.7949 9.68962 29.6519 10.7429 29.2559 12.375" stroke="black" stroke-width="1.5" stroke-linecap="round"/>
<path id="Vector_2" d="M4.49922 22.8896C5.32972 25.9902 5.74635 27.5412 6.68822 28.5463C7.43143 29.3399 8.39318 29.8954 9.45197 30.1427C10.794 30.4548 12.345 30.0396 15.447 29.2091C18.5462 28.3786 20.0972 27.9633 21.1023 27.0214C21.7783 26.3883 22.2834 25.5947 22.5708 24.7142M11.7097 8.86182C11.2257 8.98694 10.6936 9.12994 10.1078 9.28807C7.00722 10.1186 5.45622 10.5338 4.4511 11.4743C3.65702 12.2183 3.10147 13.181 2.85472 14.2408C2.63335 15.1896 2.77635 16.2428 3.17235 17.8749" stroke="black" stroke-width="1.5" stroke-linecap="round" stroke-linejoin="round"/>
</g>
</g>
</svg>
