<svg width="22" height="26" viewBox="0 0 22 26" fill="none" xmlns="http://www.w3.org/2000/svg">
<path d="M14.1247 0.555664H1.62689C1.18678 0.567315 0.769044 0.752175 0.464458 1.07008C0.159871 1.38798 -0.0069572 1.81323 0.000222499 2.25344V23.7468C-0.0069572 24.187 0.159871 24.6122 0.464458 24.9301C0.769044 25.248 1.18678 25.4329 1.62689 25.4446H19.7069C20.147 25.4329 20.5647 25.248 20.8693 24.9301C21.1739 24.6122 21.3407 24.187 21.3336 23.7468V7.59566L14.1247 0.555664ZM13.858 2.769L19.1913 8.01344H13.858V2.769ZM1.778 23.6668V2.33344H12.4447V9.44455H19.5558V23.6668H1.778Z" fill="#515151"/>
</svg>
