<svg width="20" height="20" viewBox="0 0 20 20" fill="none" xmlns="http://www.w3.org/2000/svg">
<path id="Vector" d="M0 15.1895V19.1861H3.99655L15.7837 7.39889L11.7872 3.40234L0 15.1895ZM18.8744 4.30822C18.9732 4.20963 19.0516 4.09251 19.105 3.96359C19.1585 3.83466 19.1861 3.69645 19.1861 3.55687C19.1861 3.41729 19.1585 3.27908 19.105 3.15016C19.0516 3.02123 18.9732 2.90412 18.8744 2.80552L16.3805 0.311671C16.2819 0.212873 16.1648 0.13449 16.0359 0.081009C15.907 0.0275282 15.7688 0 15.6292 0C15.4896 0 15.3514 0.0275282 15.2225 0.081009C15.0935 0.13449 14.9764 0.212873 14.8778 0.311671L12.9275 2.26199L16.9241 6.25854L18.8744 4.30822Z" fill="#3292EA"/>
</svg>
