<svg width="26" height="26" viewBox="0 0 26 26" fill="none" xmlns="http://www.w3.org/2000/svg">
<path fill-rule="evenodd" clip-rule="evenodd" d="M2.4375 3.25H23.5625L24.375 4.0625V14.625H22.75V9.75H3.25V21.125H14.625V22.75H2.4375L1.625 21.9375V4.0625L2.4375 3.25ZM3.25 8.125H22.75V4.875H3.25V8.125ZM11.375 19.5V17.7222C11.0984 17.6228 10.8408 17.4772 10.6129 17.2916L9.07725 18.1675L8.26475 16.77L9.78737 15.8811C9.73635 15.587 9.73635 15.2863 9.78737 14.9922L8.26475 14.105L9.07725 12.7075L10.6129 13.585C10.8588 13.39 11.1128 13.2459 11.375 13.1528V11.375H13V13.1528C13.2779 13.2491 13.5362 13.395 13.7621 13.5834L15.2977 12.7075L16.1102 14.105L14.5876 14.9939C14.6385 15.2874 14.6385 15.5876 14.5876 15.8811L16.1102 16.77L15.2977 18.1675L13.7621 17.29C13.5312 17.4715 13.2743 17.6172 13 17.7222V19.5H11.375ZM10.9688 15.4375C10.9688 15.7755 11.0874 16.0631 11.3246 16.3004C11.4363 16.4157 11.5706 16.5069 11.719 16.5681C11.8675 16.6293 12.0269 16.6593 12.1875 16.6562C12.3481 16.6593 12.5075 16.6293 12.656 16.5681C12.8044 16.5069 12.9387 16.4157 13.0504 16.3004C13.1657 16.1887 13.2569 16.0544 13.3181 15.906C13.3793 15.7575 13.4093 15.5981 13.4062 15.4375C13.4093 15.2769 13.3793 15.1175 13.3181 14.969C13.2569 14.8206 13.1657 14.6863 13.0504 14.5746C12.9387 14.4593 12.8044 14.3681 12.656 14.3069C12.5075 14.2457 12.3481 14.2157 12.1875 14.2188C12.0269 14.2157 11.8675 14.2457 11.719 14.3069C11.5706 14.3681 11.4363 14.4593 11.3246 14.5746C11.2093 14.6863 11.1181 14.8206 11.0569 14.969C10.9957 15.1175 10.9657 15.2769 10.9688 15.4375ZM19.6365 24.375V22.5972C19.3599 22.4978 19.1023 22.3522 18.8744 22.1666L17.3387 23.0425L16.5262 21.645L18.0505 20.7561C17.9995 20.462 17.9995 20.1613 18.0505 19.8673L16.5262 18.98L17.3387 17.5825L18.8744 18.46C19.1203 18.265 19.3749 18.1209 19.6381 18.0278V16.25H21.2631V18.0278C21.5405 18.1243 21.7981 18.2702 22.0236 18.4584L23.5592 17.5825L24.3717 18.98L22.8491 19.8689C22.9 20.1624 22.9 20.4626 22.8491 20.7561L24.3717 21.645L23.5592 23.0425L22.0236 22.165C21.7927 22.3465 21.5358 22.4922 21.2615 22.5972V24.375H19.6365ZM19.2302 20.3125C19.2302 20.6505 19.3489 20.9381 19.5861 21.1754C19.6978 21.2907 19.8321 21.3819 19.9805 21.4431C20.129 21.5043 20.2885 21.5343 20.449 21.5312C20.6095 21.5343 20.769 21.5043 20.9175 21.4431C21.0659 21.3819 21.2002 21.2907 21.3119 21.1754C21.4275 21.0638 21.519 20.9296 21.5805 20.7812C21.642 20.6327 21.6722 20.4732 21.6694 20.3125C21.6722 20.1518 21.642 19.9923 21.5805 19.8438C21.519 19.6954 21.4275 19.5612 21.3119 19.4496C21.2004 19.3345 21.0664 19.2435 20.9182 19.1822C20.7701 19.121 20.6109 19.0909 20.4506 19.0938C20.2898 19.0905 20.13 19.1204 19.9813 19.1816C19.8325 19.2428 19.698 19.3341 19.5861 19.4496C19.4708 19.5613 19.3796 19.6956 19.3184 19.844C19.2572 19.9925 19.2272 20.152 19.2302 20.3125Z" fill="black"/>
</svg>
