<svg width="31" height="31" viewBox="0 0 31 31" fill="none" xmlns="http://www.w3.org/2000/svg">
<g id="carbon:report">
<path id="Vector" d="M9.6875 17.4375H17.4375V19.375H9.6875V17.4375ZM9.6875 12.5938H21.3125V14.5312H9.6875V12.5938ZM9.6875 22.2812H14.5312V24.2188H9.6875V22.2812Z" fill="black"/>
<path id="Vector_2" d="M24.2188 4.84375H21.3125V3.875C21.3125 3.36114 21.1084 2.86833 20.745 2.50498C20.3817 2.14163 19.8889 1.9375 19.375 1.9375H11.625C11.1111 1.9375 10.6183 2.14163 10.255 2.50498C9.89163 2.86833 9.6875 3.36114 9.6875 3.875V4.84375H6.78125C6.26739 4.84375 5.77458 5.04788 5.41123 5.41123C5.04788 5.77458 4.84375 6.26739 4.84375 6.78125V27.125C4.84375 27.6389 5.04788 28.1317 5.41123 28.495C5.77458 28.8584 6.26739 29.0625 6.78125 29.0625H24.2188C24.7326 29.0625 25.2254 28.8584 25.5888 28.495C25.9521 28.1317 26.1562 27.6389 26.1562 27.125V6.78125C26.1562 6.26739 25.9521 5.77458 25.5888 5.41123C25.2254 5.04788 24.7326 4.84375 24.2188 4.84375ZM11.625 3.875H19.375V7.75H11.625V3.875ZM24.2188 27.125H6.78125V6.78125H9.6875V9.6875H21.3125V6.78125H24.2188V27.125Z" fill="black"/>
</g>
</svg>
