<svg width="24" height="24" viewBox="0 0 22 22" fill="none" xmlns="http://www.w3.org/2000/svg">
<path d="M3.57565 11.0003C3.57565 9.43283 4.84982 8.15866 6.41732 8.15866H10.084V6.41699H6.41732C3.88732 6.41699 1.83398 8.47033 1.83398 11.0003C1.83398 13.5303 3.88732 15.5837 6.41732 15.5837H10.084V13.842H6.41732C4.84982 13.842 3.57565 12.5678 3.57565 11.0003ZM7.33398 11.917H14.6673V10.0837H7.33398V11.917ZM15.584 6.41699H11.9173V8.15866H15.584C17.1515 8.15866 18.4257 9.43283 18.4257 11.0003C18.4257 12.5678 17.1515 13.842 15.584 13.842H11.9173V15.5837H15.584C18.114 15.5837 20.1673 13.5303 20.1673 11.0003C20.1673 8.47033 18.114 6.41699 15.584 6.41699Z" fill="black"/>
</svg>
