<svg width="20" height="16" viewBox="0 0 20 16" fill="none" xmlns="http://www.w3.org/2000/svg">
<path d="M9.99997 11.6662C10.9724 11.6662 11.9051 11.2799 12.5927 10.5923C13.2803 9.90462 13.6666 8.97199 13.6666 7.99953C13.6666 7.02707 13.2803 6.09444 12.5927 5.4068C11.9051 4.71917 10.9724 4.33286 9.99997 4.33286C9.02751 4.33286 8.09488 4.71917 7.40725 5.4068C6.71962 6.09444 6.33331 7.02707 6.33331 7.99953C6.33331 8.97199 6.71962 9.90462 7.40725 10.5923C8.09488 11.2799 9.02751 11.6662 9.99997 11.6662ZM18.2546 0.668945H1.75456C1.51144 0.668945 1.27828 0.765523 1.10638 0.937431C0.934468 1.10934 0.837891 1.3425 0.837891 1.58561V14.4189C0.837891 14.6621 0.934468 14.8952 1.10638 15.0671C1.27828 15.239 1.51144 15.3356 1.75456 15.3356H18.2546C18.4977 15.3356 18.7308 15.239 18.9027 15.0671C19.0746 14.8952 19.1712 14.6621 19.1712 14.4189V1.58561C19.1712 1.3425 19.0746 1.10934 18.9027 0.937431C18.7308 0.765523 18.4977 0.668945 18.2546 0.668945ZM2.67122 11.3417V4.65736C3.18041 4.50412 3.64368 4.22707 4.0196 3.851C4.39552 3.47492 4.67237 3.01153 4.82539 2.50228H15.1755C15.329 3.01281 15.607 3.47719 15.9844 3.85367C16.3619 4.23016 16.827 4.50696 17.3379 4.6592V11.3399C16.8262 11.4925 16.3605 11.7701 15.9828 12.1476C15.6052 12.5251 15.3274 12.9906 15.1746 13.5023H4.82539C4.67307 12.9919 4.39643 12.5273 4.02029 12.1502C3.64415 11.7731 3.1812 11.4953 2.67122 11.3417Z" fill="black"/>
</svg>
