<svg width="29" height="29" viewBox="0 0 29 29" fill="none" xmlns="http://www.w3.org/2000/svg">
<g id="solar:notes-broken">
<g id="Group">
<path id="Vector" d="M14.0238 11.9078L19.7753 13.4487M13.0986 15.3587L16.5494 16.2827M24.1871 15.0598C23.4667 17.745 23.1071 19.0882 22.2914 19.9587C21.6477 20.646 20.8148 21.127 19.8979 21.3412C19.7824 21.3686 19.6657 21.3888 19.5466 21.4031C18.4571 21.5376 17.127 21.1816 14.7073 20.5338C12.0221 19.8134 10.6789 19.4538 9.80844 18.6381C9.12095 17.9941 8.63985 17.1608 8.42594 16.2434C8.15444 15.0812 8.51406 13.7392 9.23448 11.054L9.85011 8.75344L10.1407 7.67579C10.6825 5.69195 11.0468 4.60001 11.7458 3.85339C12.3896 3.16654 13.2225 2.68588 14.1393 2.47208C15.3015 2.20059 16.6447 2.5602 19.3311 3.28062C22.0151 3.99985 23.3583 4.35947 24.2288 5.17396C24.9165 5.81824 25.3976 6.65202 25.6113 7.56981C25.803 8.39145 25.6791 9.30358 25.3362 10.717" stroke="#515151" stroke-width="1.29903" stroke-linecap="round"/>
<path id="Vector_2" d="M3.89676 19.8229C4.616 22.5081 4.9768 23.8513 5.79248 24.7218C6.43612 25.409 7.26902 25.8901 8.18595 26.1042C9.34815 26.3746 10.6913 26.0149 13.3777 25.2957C16.0618 24.5765 17.405 24.2169 18.2754 23.4012C18.8608 22.8528 19.2983 22.1656 19.5472 21.4031M10.1412 7.67456C9.72206 7.78292 9.26122 7.90676 8.75395 8.0437C6.06875 8.76293 4.72555 9.12255 3.85509 9.93704C3.1674 10.5813 2.68628 11.4151 2.47259 12.3329C2.28088 13.1545 2.40472 14.0667 2.74766 15.4801" stroke="#515151" stroke-width="1.29903" stroke-linecap="round" stroke-linejoin="round"/>
</g>
</g>
</svg>
