<svg width="32" height="32" viewBox="0 0 32 32" fill="none" xmlns="http://www.w3.org/2000/svg">
<g id="solar:notes-broken">
<g id="Group">
<path id="Vector" d="M15.39 13.0679L21.7018 14.7589M14.3746 16.855L18.1617 17.8691M26.5435 16.527C25.7529 19.4739 25.3582 20.9479 24.4631 21.9032C23.7567 22.6574 22.8427 23.1854 21.8364 23.4204C21.7097 23.4504 21.5816 23.4727 21.4509 23.4883C20.2552 23.636 18.7955 23.2453 16.1401 22.5344C13.1932 21.7438 11.7192 21.3491 10.7639 20.454C10.0094 19.7473 9.48146 18.8327 9.24671 17.826C8.94876 16.5505 9.34341 15.0778 10.134 12.1309L10.8096 9.60621L11.1285 8.42355C11.7231 6.24642 12.123 5.04809 12.8901 4.22872C13.5966 3.47496 14.5106 2.94746 15.5167 2.71283C16.7922 2.41488 18.2662 2.80954 21.2144 3.60015C24.1599 4.38946 25.634 4.78411 26.5893 5.67796C27.3439 6.38501 27.8719 7.30003 28.1065 8.30725C28.3168 9.20894 28.1809 10.2099 27.8046 11.7611" stroke="black" stroke-width="1.4256" stroke-linecap="round"/>
<path id="Vector_2" d="M4.27586 21.7543C5.06517 24.7012 5.46113 26.1752 6.35628 27.1305C7.06263 27.8848 7.97668 28.4127 8.98295 28.6477C10.2584 28.9444 11.7325 28.5497 14.6806 27.7604C17.6261 26.9711 19.1002 26.5764 20.0555 25.6813C20.6979 25.0795 21.178 24.3253 21.4511 23.4885M11.1287 8.42236C10.6687 8.54128 10.163 8.67719 9.6063 8.82747C6.65946 9.61678 5.18539 10.0114 4.23012 10.9053C3.47543 11.6123 2.94743 12.5274 2.71293 13.5346C2.50253 14.4363 2.63844 15.4373 3.0148 16.9884" stroke="black" stroke-width="1.4256" stroke-linecap="round" stroke-linejoin="round"/>
</g>
</g>
</svg>
