<svg width="24" height="26" viewBox="0 0 24 26" fill="none" xmlns="http://www.w3.org/2000/svg">
<path d="M12.0198 4.90991C8.70984 4.90991 6.01984 7.59991 6.01984 10.9099V13.7999C6.01984 14.4099 5.75984 15.3399 5.44984 15.8599L4.29984 17.7699C3.58984 18.9499 4.07984 20.2599 5.37984 20.6999C9.68984 22.1399 14.3398 22.1399 18.6498 20.6999C19.8598 20.2999 20.3898 18.8699 19.7298 17.7699L18.5798 15.8599C18.2798 15.3399 18.0198 14.4099 18.0198 13.7999V10.9099C18.0198 7.60991 15.3198 4.90991 12.0198 4.90991Z" fill="#3292EA"/>
<path d="M13.8699 5.19994C13.5599 5.10994 13.2399 5.03994 12.9099 4.99994C11.9499 4.87994 11.0299 4.94994 10.1699 5.19994C10.4599 4.45994 11.1799 3.93994 12.0199 3.93994C12.8599 3.93994 13.5799 4.45994 13.8699 5.19994Z" fill="#3292EA"/>
<path d="M15.0195 21.0601C15.0195 22.7101 13.6695 24.0601 12.0195 24.0601C11.1995 24.0601 10.4395 23.7201 9.89953 23.1801C9.35953 22.6401 9.01953 21.8801 9.01953 21.0601" stroke="#3292EA" stroke-width="1.5" stroke-miterlimit="10"/>
<circle cx="20.1428" cy="3.85715" r="3" fill="#FC4D5F"/>
</svg>
