<svg width="40" height="40" viewBox="0 0 40 40" fill="none" xmlns="http://www.w3.org/2000/svg">
<g id="vuesax/linear/notification">
<g id="vuesax/linear/notification_2">
<g id="notification">
<path id="Vector" d="M20.0329 4.84985C14.5162 4.84985 10.0329 9.33319 10.0329 14.8499V19.6665C10.0329 20.6832 9.59957 22.2332 9.0829 23.0999L7.16623 26.2832C5.9829 28.2499 6.79957 30.4332 8.96623 31.1665C16.1496 33.5665 23.8996 33.5665 31.0829 31.1665C33.0996 30.4999 33.9829 28.1165 32.8829 26.2832L30.9662 23.0999C30.4662 22.2332 30.0329 20.6832 30.0329 19.6665V14.8499C30.0329 9.34985 25.5329 4.84985 20.0329 4.84985Z" fill="#3292EA"/>
<path id="Vector_2" d="M23.1165 5.33323C22.5999 5.18323 22.0665 5.06657 21.5165 4.9999C19.9165 4.7999 18.3832 4.91657 16.9499 5.33323C17.4332 4.0999 18.6332 3.23323 20.0332 3.23323C21.4332 3.23323 22.6332 4.0999 23.1165 5.33323Z" fill="#3292EA"/>
<path id="Vector_3" d="M25.0325 31.7668C25.0325 34.5168 22.7825 36.7668 20.0325 36.7668C18.6659 36.7668 17.3992 36.2001 16.4992 35.3001C15.5992 34.4001 15.0325 33.1334 15.0325 31.7668" stroke="#3292EA" stroke-width="2.5" stroke-miterlimit="10"/>
</g>
</g>
</g>
</svg>
