<svg width="41" height="31" viewBox="0 0 41 31" fill="none" xmlns="http://www.w3.org/2000/svg">
<g id="Group 1000004738">
<g id="Group 1000004671">
<g id="Group 702">
<rect id="Rectangle 1067" width="41" height="31" rx="2.43327" fill="#7CA240"/>
<g id="Group 1000004739">
<path id="Vector" d="M20.183 18.0959C21.3913 18.0959 22.3707 17.1165 22.3707 15.9083C22.3707 14.7 21.3913 13.7206 20.183 13.7206C18.9748 13.7206 17.9954 14.7 17.9954 15.9083C17.9954 17.1165 18.9748 18.0959 20.183 18.0959Z" fill="white"/>
<path id="Vector_2" d="M28.3542 15.7224C27.7109 14.0585 26.5942 12.6195 25.142 11.5833C23.6898 10.5472 21.9659 9.95925 20.1832 9.89221C18.4005 9.95925 16.6765 10.5472 15.2244 11.5833C13.7722 12.6195 12.6555 14.0585 12.0122 15.7224C11.9688 15.8425 11.9688 15.9741 12.0122 16.0943C12.6555 17.7582 13.7722 19.1972 15.2244 20.2333C16.6765 21.2695 18.4005 21.8574 20.1832 21.9245C21.9659 21.8574 23.6898 21.2695 25.142 20.2333C26.5942 19.1972 27.7109 17.7582 28.3542 16.0943C28.3976 15.9741 28.3976 15.8425 28.3542 15.7224ZM20.1832 19.4633C19.4801 19.4633 18.7928 19.2548 18.2081 18.8642C17.6235 18.4736 17.1679 17.9184 16.8988 17.2688C16.6297 16.6192 16.5593 15.9044 16.6965 15.2148C16.8337 14.5252 17.1723 13.8918 17.6694 13.3946C18.1666 12.8974 18.8 12.5588 19.4896 12.4217C20.1792 12.2845 20.894 12.3549 21.5436 12.624C22.1932 12.893 22.7484 13.3487 23.1391 13.9333C23.5297 14.5179 23.7382 15.2052 23.7382 15.9083C23.7367 16.8507 23.3617 17.7541 22.6953 18.4205C22.029 19.0869 21.1256 19.4619 20.1832 19.4633Z" fill="white"/>
</g>
</g>
</g>
</g>
</svg>
