<svg width="23" height="29" viewBox="0 0 23 29" fill="none" xmlns="http://www.w3.org/2000/svg">
<path d="M20.2188 3.84375H17.3125V2.875C17.3125 2.36114 17.1084 1.86833 16.745 1.50498C16.3817 1.14163 15.8889 0.9375 15.375 0.9375H7.625C7.11114 0.9375 6.61833 1.14163 6.25498 1.50498C5.89163 1.86833 5.6875 2.36114 5.6875 2.875V3.84375H2.78125C2.26739 3.84375 1.77458 4.04788 1.41123 4.41123C1.04788 4.77458 0.84375 5.26739 0.84375 5.78125V26.125C0.84375 26.6389 1.04788 27.1317 1.41123 27.495C1.77458 27.8584 2.26739 28.0625 2.78125 28.0625H20.2188C20.7326 28.0625 21.2254 27.8584 21.5888 27.495C21.9521 27.1317 22.1562 26.6389 22.1562 26.125V5.78125C22.1562 5.26739 21.9521 4.77458 21.5888 4.41123C21.2254 4.04788 20.7326 3.84375 20.2188 3.84375ZM7.625 2.875H15.375V6.75H7.625V2.875ZM20.2188 26.125H2.78125V5.78125H5.6875V8.6875H17.3125V5.78125H20.2188V26.125Z" fill="black"/>
<g clip-path="url(#clip0_1206_149)">
<path d="M11.0001 11.167C14.2218 11.167 16.8334 13.7786 16.8334 17.0003C16.8334 20.2221 14.2218 22.8337 11.0001 22.8337C7.77833 22.8337 5.16675 20.2221 5.16675 17.0003C5.16675 13.7786 7.77833 11.167 11.0001 11.167ZM11.0001 12.3337C9.7624 12.3337 8.57542 12.8253 7.70025 13.7005C6.82508 14.5757 6.33341 15.7626 6.33341 17.0003C6.33341 18.238 6.82508 19.425 7.70025 20.3002C8.57542 21.1753 9.7624 21.667 11.0001 21.667C12.2378 21.667 13.4247 21.1753 14.2999 20.3002C15.1751 19.425 15.6667 18.238 15.6667 17.0003C15.6667 15.7626 15.1751 14.5757 14.2999 13.7005C13.4247 12.8253 12.2378 12.3337 11.0001 12.3337ZM11.0001 13.5003C11.143 13.5003 11.2809 13.5528 11.3876 13.6477C11.4944 13.7427 11.5626 13.8735 11.5793 14.0154L11.5834 14.0837V16.7588L13.1625 18.3379C13.2671 18.4429 13.3279 18.5837 13.3324 18.7319C13.3369 18.88 13.2849 19.0243 13.1869 19.1355C13.0888 19.2467 12.9522 19.3163 12.8046 19.3304C12.6571 19.3444 12.5097 19.3018 12.3925 19.2112L12.3377 19.1627L10.5877 17.4127C10.497 17.322 10.4388 17.2039 10.422 17.0767L10.4167 17.0003V14.0837C10.4167 13.9289 10.4782 13.7806 10.5876 13.6712C10.697 13.5618 10.8454 13.5003 11.0001 13.5003Z" fill="black"/>
</g>
<defs>
<clipPath id="clip0_1206_149">
<rect width="14" height="14" fill="white" transform="translate(4 10)"/>
</clipPath>
</defs>
</svg>
